{"title":"The Musketeer-AC3-XviD-DVDRip 2001 TBS","uid":6255814,"size":1569749858,"categoryP":"video","categoryS":"movies","magnet":"?xt=urn:btih:147eb4f1a39ad80e0b959cc335f4d4a88e703d6a&amp;dn=The+Musketeer-AC3-XviD-DVDRip+2001+TBS&amp;tr=udp%3A%2F%2Ftracker.openbittorrent.com%3A80&amp;tr=udp%3A%2F%2Fopen.demonii.com%3A1337&amp;tr=udp%3A%2F%2Ftracker.coppersurfer.tk%3A6969&amp;tr=udp%3A%2F%2Fexodus.desync.com%3A6969","seeders":1,"leechers":0,"uploader":"FatFreddy30","files":-1,"time":1300569209,"description":"Alexander Dumas' novel is updated with an eastern influence as D'Artagnan attempts to join the king's elite guards, the Royal Musketeers, and find the man who killed his parents..\n &lt;a href=&quot;\nhttp://www.imdb.com/title/tt0246544/&quot; rel=&quot;nofollow&quot; target=&quot;_NEW&quot;&gt;\nhttp://www.imdb.com/title/tt0246544/&lt;/a&gt;\n\nSubs: Dutch, English (srt).\n\nFrankrijk, de zeventiende eeuw. Het land is in chaos. Kardinaal Richelieu probeert koning Louis XIII van de troon te stoten en zelf de macht te grijpen. Daarvoor heeft hij een privÃƒÂ©-leger gecreÃƒÂ«erd, dat onder aanvoering staat van de sadistische Febre. Tijdens ÃƒÂ©ÃƒÂ©n van hun plunderingen worden de ouders van de kleine D'Artagnan in koelen bloede door Febre vermoord. Het jongetje groeit op met maar ÃƒÂ©ÃƒÂ©n doel voor ogen: net zoals zijn vader een Musketier worden en wraak nemen op Febre...\n &lt;a href=&quot;\nhttp://www.moviemeter.nl/film/3627&quot; rel=&quot;nofollow&quot; target=&quot;_NEW&quot;&gt;\nhttp://www.moviemeter.nl/film/3627&lt;/a&gt;\n\nOndertitels: English, Nederlands.\n\nGeneral\nComplete name                    : The Musketeer-AC3-XviD-DVDRip 2001\\The Musketeer-AC3-XviD-DVDRip 2001.avi\nFormat                           : AVI\nFormat/Info                      : Audio Video Interleave\nFile size                        : 1.46 GiB\nDuration                         : 1h 39mn\nOverall bit rate                 : 2 094 Kbps\nWriting application              : VirtualDubMod 1.5.4.1 (build 2178/release)\nWriting library                  : VirtualDubMod build 2178/release\nSource                           : Original Pal Retail\n\nVideo\nID                               : 0\nFormat                           : MPEG-4 Visual\nFormat profile                   : Simple@L3\nFormat settings, BVOP            : No\nFormat settings, QPel            : No\nFormat settings, GMC             : No warppoints\nFormat settings, Matrix          : Default (H.263)\nCodec ID                         : XVID\nCodec ID/Hint                    : XviD\nDuration                         : 1h 39mn\nBit rate                         : 1 636 Kbps\nWidth                            : 720 pixels\nHeight                           : 304 pixels\nDisplay aspect ratio             : 2.35:1\nFrame rate                       : 25.000 fps\nResolution                       : 8 bits\nColorimetry                      : 4:2:0\nScan type                        : Progressive\nBits/(Pixel*Frame)               : 0.299\nStream size                      : 1.14 GiB (78%)\nWriting library                  : XviD 1.1.2 (UTC 2006-11-01)\n\nAudio\nID                               : 1\nFormat                           : AC-3\nFormat/Info                      : Audio Coding 3\nCodec ID                         : 2000\nDuration                         : 1h 39mn\nBit rate mode                    : Constant\nBit rate                         : 448 Kbps\nChannel(s)                       : 6 channels\nChannel positions                : Front: L C R, Surround: L R, LFE\nSampling rate                    : 48.0 KHz\nStream size                      : 320 MiB (21%)\nAlignment                        : Split accross interleaves\nInterleave, duration             : 40 ms (1.00 video frame)\nInterleave, preload duration     : 500 ms\n\nTBS.","torrent":{"xt":"urn:btih:147eb4f1a39ad80e0b959cc335f4d4a88e703d6a","amp;dn":"The+Musketeer-AC3-XviD-DVDRip+2001+TBS","amp;tr":["udp%3A%2F%2Ftracker.openbittorrent.com%3A80","udp%3A%2F%2Fopen.demonii.com%3A1337","udp%3A%2F%2Ftracker.coppersurfer.tk%3A6969","udp%3A%2F%2Fexodus.desync.com%3A6969"],"infoHash":"147eb4f1a39ad80e0b959cc335f4d4a88e703d6a","infoHashBuffer":{"type":"Buffer","data":[20,126,180,241,163,154,216,14,11,149,156,195,53,244,212,168,142,112,61,106]},"announce":[],"urlList":[]}}